<svg aria-hidden="true" style="width:0;height:0;position:absolute;overflow:hidden" xmlns="http://www.w3.org/2000/svg"><defs><symbol id="icon-instagram" viewBox="0 0 32 32"><path d="M16 2.881c4.275 0 4.781.019 6.462.094 1.563.069 2.406.331 2.969.55a4.952 4.952 0 0 1 1.837 1.194 5.015 5.015 0 0 1 1.2 1.838c.219.563.481 1.412.55 2.969.075 1.688.094 2.194.094 6.463s-.019 4.781-.094 6.463c-.069 1.563-.331 2.406-.55 2.969a4.94 4.94 0 0 1-1.194 1.837 5.02 5.02 0 0 1-1.837 1.2c-.563.219-1.413.481-2.969.55-1.688.075-2.194.094-6.463.094s-4.781-.019-6.463-.094c-1.563-.069-2.406-.331-2.969-.55a4.952 4.952 0 0 1-1.838-1.194 5.02 5.02 0 0 1-1.2-1.837c-.219-.563-.481-1.413-.55-2.969-.075-1.688-.094-2.194-.094-6.463s.019-4.781.094-6.463c.069-1.563.331-2.406.55-2.969a4.964 4.964 0 0 1 1.194-1.838 5.015 5.015 0 0 1 1.838-1.2c.563-.219 1.412-.481 2.969-.55 1.681-.075 2.188-.094 6.463-.094zM16 0c-4.344 0-4.887.019-6.594.094-1.7.075-2.869.35-3.881.744-1.056.412-1.95.956-2.837 1.85a7.833 7.833 0 0 0-1.85 2.831C.444 6.538.169 7.7.094 9.4.019 11.113 0 11.656 0 16s.019 4.887.094 6.594c.075 1.7.35 2.869.744 3.881.413 1.056.956 1.95 1.85 2.837a7.82 7.82 0 0 0 2.831 1.844c1.019.394 2.181.669 3.881.744 1.706.075 2.25.094 6.594.094s4.888-.019 6.594-.094c1.7-.075 2.869-.35 3.881-.744 1.05-.406 1.944-.956 2.831-1.844s1.438-1.781 1.844-2.831c.394-1.019.669-2.181.744-3.881.075-1.706.094-2.25.094-6.594s-.019-4.887-.094-6.594c-.075-1.7-.35-2.869-.744-3.881a7.506 7.506 0 0 0-1.831-2.844A7.82 7.82 0 0 0 26.482.843C25.463.449 24.301.174 22.601.099c-1.712-.081-2.256-.1-6.6-.1z"/><path d="M16 7.781c-4.537 0-8.219 3.681-8.219 8.219s3.681 8.219 8.219 8.219 8.219-3.681 8.219-8.219A8.221 8.221 0 0 0 16 7.781zm0 13.55a5.331 5.331 0 1 1 0-10.663 5.331 5.331 0 0 1 0 10.663zM26.462 7.456a1.919 1.919 0 1 1-3.838 0 1.919 1.919 0 0 1 3.838 0z"/></symbol><symbol id="icon-facebook" viewBox="0 0 32 32"><path d="M19 6h5V0h-5c-3.86 0-7 3.14-7 7v3H8v6h4v16h6V16h5l1-6h-6V7c0-.542.458-1 1-1z"/></symbol><symbol id="icon-whatsapp" viewBox="0 0 32 32"><path d="M27.281 4.65C24.287 1.65 20.306 0 16.062 0 7.324 0 .212 7.112.212 15.856c0 2.794.731 5.525 2.119 7.925L.081 32l8.406-2.206a15.858 15.858 0 0 0 7.575 1.931h.006c8.738 0 15.856-7.113 15.856-15.856 0-4.238-1.65-8.219-4.644-11.219zm-11.212 24.4a13.17 13.17 0 0 1-6.713-1.837l-.481-.288-4.987 1.306 1.331-4.863-.313-.5a13.086 13.086 0 0 1-2.019-7.012c0-7.269 5.912-13.181 13.188-13.181 3.519 0 6.831 1.375 9.319 3.862a13.108 13.108 0 0 1 3.856 9.325c-.006 7.275-5.919 13.188-13.181 13.188zm7.225-9.875c-.394-.2-2.344-1.156-2.706-1.288s-.625-.2-.894.2c-.262.394-1.025 1.288-1.256 1.556-.231.262-.462.3-.856.1s-1.675-.619-3.188-1.969c-1.175-1.05-1.975-2.35-2.206-2.744s-.025-.613.175-.806c.181-.175.394-.463.594-.694s.262-.394.394-.662c.131-.262.069-.494-.031-.694s-.894-2.15-1.219-2.944c-.319-.775-.65-.669-.894-.681-.231-.012-.494-.012-.756-.012s-.694.1-1.056.494c-.363.394-1.387 1.356-1.387 3.306s1.419 3.831 1.619 4.1c.2.262 2.794 4.269 6.769 5.981.944.406 1.681.65 2.256.837.95.3 1.813.256 2.494.156.762-.113 2.344-.956 2.675-1.881s.331-1.719.231-1.881c-.094-.175-.356-.275-.756-.475z"/></symbol><symbol id="icon-gift" viewBox="0 0 42 32"><path d="M1.5 17a.5.5 0 0 0-.5.5v12c0 .827.673 1.5 1.5 1.5h10a.5.5 0 0 0 0-1h-10a.5.5 0 0 1-.5-.5v-12a.5.5 0 0 0-.5-.5zm39 0a.5.5 0 0 0-.5.5v12a.5.5 0 0 1-.5.5h-21a.5.5 0 0 0 0 1h21c.827 0 1.5-.673 1.5-1.5v-12a.5.5 0 0 0-.5-.5zM18 1.5a.5.5 0 0 0 .5.5h21a.5.5 0 0 1 .5.5v8.958a.5.5 0 0 0 1 0V2.5c0-.827-.673-1.5-1.5-1.5h-21a.5.5 0 0 0-.5.5zM2.5 1C1.673 1 1 1.673 1 2.5v8.958a.5.5 0 0 0 1 0V2.5a.5.5 0 0 1 .5-.5h10a.5.5 0 0 0 0-1h-10zm39 12.958H21.1c.397-.176.74-.381.984-.625a3.879 3.879 0 0 0 0-5.48c-1.464-1.464-4.016-1.464-5.48 0-.235.235-.432.563-.604.94V.5a.5.5 0 0 0-1 0v13.225c-1.703-.702-4.701-2.144-5.316-3.387-.4-.808-.461-1.722-.173-2.576s.892-1.543 1.699-1.943a.5.5 0 0 0-.443-.897c-1.047.518-1.829 1.413-2.203 2.52s-.294 2.293.224 3.339c.605 1.222 2.63 2.391 4.275 3.177H.5a.5.5 0 0 0 0 1h9.346c-.387.174-.722.375-.961.614a3.879 3.879 0 0 0 0 5.48c.732.732 1.705 1.135 2.74 1.135s2.008-.403 2.74-1.135c.248-.248.456-.599.635-1.005V31.5a.5.5 0 0 0 1 0V15.195c1.708.706 4.673 2.138 5.285 3.374.4.808.461 1.722.173 2.576a3.353 3.353 0 0 1-1.699 1.943.5.5 0 1 0 .443.896c1.047-.518 1.829-1.413 2.203-2.52s.294-2.292-.224-3.339c-.602-1.216-2.611-2.38-4.252-3.167H41.5a.5.5 0 0 0 0-1zM17.311 8.561c.543-.543 1.265-.842 2.033-.842s1.49.299 2.033.842a2.878 2.878 0 0 1 0 4.066c-.854.854-3.79 1.202-5.367 1.3.112-1.864.522-4.587 1.301-5.366zm-3.653 11.784c-1.086 1.086-2.98 1.086-4.066 0a2.878 2.878 0 0 1 0-4.066c.854-.854 3.79-1.202 5.367-1.3-.112 1.864-.522 4.587-1.301 5.366z"/></symbol><symbol id="icon-pencil" viewBox="0 0 32 32"><path d="M0 31.479a.5.5 0 0 0 .5.5h31.111a.49.49 0 0 0 .355-.148l.003-.002c.003-.003.003-.009.007-.012a.503.503 0 0 0 .107-.195c.007-.023.01-.045.014-.069.004-.025.015-.047.015-.073 0-.04-.014-.075-.023-.112-.003-.014.003-.028-.002-.042l-3.16-9.715a.488.488 0 0 0-.122-.199L11.688 4.294c-.018-.028-.031-.058-.055-.083L7.894.472a1.56 1.56 0 0 0-2.203 0L.456 5.707C.162 6.001 0 6.392 0 6.808s.162.808.456 1.102l3.656 3.656c.018.027.03.058.054.082l17.09 17.205a.49.49 0 0 0 .212.127l6.713 2H.5a.499.499 0 0 0-.5.499zm6.362-21.318 15.687 15.486-.577 2.002L5.227 11.296l1.135-1.135zM22.816 25 7.068 9.455l2.437-2.437 15.607 15.648V25h-2.296zm2.919-3.125L10.212 6.311l1.039-1.039 16.211 16.211-1.727.392zM22.988 26h2.624a.5.5 0 0 0 .5-.5v-2.685l2.007-.456 2.723 8.37-8.488-2.529.634-2.2zM1 6.808c0-.149.058-.288.163-.394l5.235-5.235a.559.559 0 0 1 .789 0l3.372 3.372-6.023 6.023-3.372-3.372A.55.55 0 0 1 1 6.808z"/></symbol><symbol id="icon-chat" viewBox="0 0 42 32"><path d="M35.652 14.023a.5.5 0 0 0-.303.953C39.257 16.221 41 18.078 41 21c0 2.599-2.371 4.616-3.783 5.588A.5.5 0 0 0 37 27v3.823a7.953 7.953 0 0 1-3.126-2.155.505.505 0 0 0-.468-.159c-.285.055-.576.133-.871.212-.51.137-1.036.279-1.535.279-2.568 0-4.366-.552-6.204-1.903a.5.5 0 0 0-.593.806C26.23 29.393 28.199 30 31 30c.631 0 1.223-.159 1.795-.313.178-.049.355-.097.53-.138 1.869 1.974 3.983 2.423 4.075 2.441a.495.495 0 0 0 .416-.103A.498.498 0 0 0 38 31.5v-4.239c2.582-1.841 4-4.057 4-6.261 0-3.381-2.017-5.598-6.348-6.977zM33 13.5C33 5.804 25.982 0 16.677 0 7.325 0 0 5.931 0 13.502c0 4.539 3.211 7.791 6 9.759v6.636a.502.502 0 0 0 .705.456c.146-.065 3.559-1.616 6.479-4.809 1.265.235 2.696.461 3.994.461C26.641 26.005 33 20.979 33 13.5zM17.177 25.005c-1.31 0-2.799-.251-4.083-.496a.507.507 0 0 0-.468.159C10.576 26.98 8.167 28.449 7 29.082V23a.5.5 0 0 0-.217-.412C4.145 20.773 1 17.725 1 13.502 1 6.491 7.886 1 16.677 1 25.413 1 32 6.374 32 13.5c0 6.882-5.957 11.505-14.823 11.505zM16.5 11.5c-1.103 0-2 .897-2 2s.897 2 2 2 2-.897 2-2-.897-2-2-2zm0 3a1.001 1.001 0 0 1 0-2 1.001 1.001 0 0 1 0 2zm7-3c-1.103 0-2 .897-2 2s.897 2 2 2 2-.897 2-2-.897-2-2-2zm0 3a1.001 1.001 0 0 1 0-2 1.001 1.001 0 0 1 0 2zm-14-2.905c-1.103 0-2 .897-2 2s.897 2 2 2 2-.897 2-2-.897-2-2-2zm0 3a1.001 1.001 0 0 1 0-2 1.001 1.001 0 0 1 0 2z"/></symbol></defs></svg>